<?xml version="1.0" encoding="UTF-8" standalone="yes"?>
<!-- Created with sK1/UniConvertor (http://sk1project.org/) -->
<svg xmlns="http://www.w3.org/2000/svg" xmlns:xlink="http://www.w3.org/1999/xlink"
  width="974pt" height="270pt" viewBox="0 0 974 270"
  fill-rule="evenodd">
<g>
<g>
<path style="stroke:none; fill:#000000" d="M 802.1 4.60001C 797.8 8.20001 797 12.3 797 32.2L 797 49.9L 769.8 50.2C 743.8 50.5 742.3 50.6 738.4 52.7C 733.1 55.5 727.7 61.8 726.2 66.9C 725.3 69.6 725 89.2 725 135.5C 725 171.2 725.2 200.1 725.4 199.9C 725.6 199.7 726.1 196.8 726.5 193.5C 726.9 190.2 727.6 184.6 728.1 181C 728.6 177.4 729.4 171.6 729.8 168C 730.2 164.4 731.1 160.6 731.7 159.4C 735.4 152.8 750.6 143.2 755.5 144.4C 758.5 145.2 766 143 766 141.3C 766 139.4 769.3 138.1 780.8 135.3C 789.9 133.2 794.7 132.7 812.6 132.3L 833.7 131.8L 838 140.9C 840.4 145.9 842.8 150 843.4 150C 844 150 845.8 154.3 847.4 159.5C 850.1 168.3 850.5 168.9 853.2 169.2C 855.9 169.5 856.3 170.2 859.3 178.9C 861.9 186.4 863 188.5 865 189.2C 868.2 190.4 869 191.7 869 196C 869.1 199.3 869.2 199.4 870.6 197.5C 875.5 191.1 885 173.3 885 170.5C 885 166.9 887.3 163.2 890.4 162C 893.2 161 897 151.5 897 145.5C 897 142.7 897.7 140.4 899.1 138.6C 900.8 136.4 901.8 131.9 904.1 115.7C 905.9 103.2 906.7 93.7 906.4 90.9C 905.9 87 906.2 85.7 908.5 82.1C 912.4 76.3 915.1 76.6 918.2 83.2C 919.6 86.1 919.8 88.6 919.4 94.7C 919.1 99 919.5 110.2 920.3 119.6C 921.6 134.7 922 137 923.9 138.9C 925.5 140.5 926 142.1 925.9 145.3C 925.7 149.7 929.6 162 931.2 162C 932.9 162 937 166.9 937 169.1C 937 170.3 941.1 178.9 946 188.2C 951 197.5 955 205.9 955 206.8C 955 210.4 953 211 940.4 211C 927.3 211 926.8 210.8 925.6 205.5C 924.5 201 921.1 196.1 918 194.5C 916.4 193.7 912.8 193 910 193C 905.7 193 904.4 193.5 902 195.8C 900.5 197.4 898.6 200.7 897.9 203.1C 895.8 210.6 894.6 211.1 881.1 210.4C 874.7 210 868.9 209.3 868.3 208.7C 867.6 208.2 867 206.3 867 204.5C 867 200.2 866.1 198 864.5 198C 862.4 198 861.6 200 861.9 204.2C 862 207.4 861.8 208 860.1 208C 858.5 208 858.1 207.2 857.8 203.9C 857.6 201.2 856.9 199.3 855.7 198.6C 853.3 197.1 852 199.2 852 204.7C 852 211 849.6 210.3 848.4 203.7C 847.6 199.1 847.2 198.5 845 198.5C 842.7 198.5 842.5 198.9 842.2 203.7C 841.9 208.2 841.6 209 839.9 209C 838.5 209 838 208.3 838 206.1C 838 201.1 836.3 198 833.6 198C 830.8 198 830 199.6 830 205.1C 830 208.3 829.6 209 828.1 209C 826.6 209 826 207.9 825.4 204.4C 823.7 195.5 818 196.1 818 205.2C 818 209.8 817.8 210.1 815.8 209.8C 814.1 209.6 813.4 208.7 813.2 206.5C 812.6 199.8 812.1 198.9 809.2 199.2C 806.7 199.5 806.5 199.9 806.2 204.7C 805.9 209.8 805.8 210 803 210C 800.2 210 800.1 209.8 799.8 204.8C 799.6 200.6 799.1 199.4 797.6 199.2C 795.1 198.7 794 200.6 794 205.7C 794 209.3 793.7 210 792 210C 790.4 210 790 209.3 790 206.2C 790 201.6 788.1 198.6 785.4 199.1C 783.9 199.4 783.4 200.6 783 205C 782.6 209.7 782.2 210.5 780.5 210.5C 778.8 210.5 778.4 209.7 778 205.5C 777.6 201.7 777.1 200.4 775.7 200.2C 772.7 199.6 771 201.9 771 206.6C 771 210.3 770.7 211 769 211C 767.3 211 767 210.3 767 206C 767 202.4 766.6 200.8 765.5 200.3C 763.2 199.5 762.7 200.4 762.6 205.7C 762.5 209.9 762.2 210.5 760.3 210.8C 758.2 211.1 758 210.8 758 206.1C 758 201.7 757.7 201 756 201C 754.3 201 754 201.7 754 206C 754 210.3 753.7 211 752 211C 750.3 211 750 210.3 750 205.9C 750 199.3 747.6 199.7 747.2 206.3C 747 209.6 746.5 211 745.4 211C 744.4 211 744 209.7 744 206.4C 744 200.5 741.6 200.9 741.2 206.8C 740.8 212.1 739 212.3 739 207.1C 739 204.9 738.6 202.8 738 202.5C 737.4 202.1 737 203.7 737 206.5C 737 212 734.9 212.3 733.9 206.9L 733.3 203.5L 733.1 207.4C 733 211.9 731.4 211.3 730.7 206.5C 730.4 204.1 730.3 204.3 730.1 207.7C 730 211.4 730.4 212.2 733.3 214.4C 738.9 218.7 743.3 220 752.4 220C 760.8 220 760.8 220 761.5 222.8C 762.4 226.9 765.2 230 769.5 231.4C 776.1 233.7 783.1 230.1 784.8 223.6L 785.6 220.5L 846 220.5L 906.4 220.5L 907.2 223.6C 910.2 235.3 927.9 234.7 930.5 222.8C 931.1 220.2 931.2 220.2 940.9 219.8C 949.7 219.5 951.1 219.2 955.6 216.5C 958.6 214.6 961.6 211.6 963.5 208.6L 966.5 203.7L 966.8 137.6C 967 89.8 966.8 70.3 965.9 67.3C 964.5 62 959.1 55.6 953.6 52.7C 949.7 50.6 948.2 50.5 922.3 50.2L 895 49.9L 895 32.2C 895 12.3 894.2 8.20001 889.9 4.60004L 886.8 2.00003L 846 2.00003L 805.2 2.00003L 802.1 4.60001zM 882 32.5L 882 50L 873.5 50L 865 50L 865 47C 865 43.6 866.7 43.9 846.5 43.9C 826.3 43.9 828 43.6 828 47L 828 50L 819 50L 810 50L 810 32.5L 810 15L 846 15L 882 15L 882 32.5z"/>
<path style="stroke:none; fill:#000000" d="M 64 50.1C 55.4 51.5 43.2 58.1 35.7 65.3C 23 77.5 17 90.5 16.9 105.6C 16.7 118.9 21.3 126 29.9 126C 32.8 126 32.9 125.9 31.8 122.9C 31.2 121 30.9 114.9 31.2 107.2C 31.6 96.9 32.2 93.1 34.3 87.1C 39.4 72.6 48.2 63.7 60.6 60.5C 73.2 57.2 81.5 59.8 86.2 68.5C 95.4 85.6 89.4 120.4 74.6 135.6C 70.2 140.1 64.8 143.2 63.5 141.9C 63.3 141.6 65.6 125.5 68.6 106.1C 71.5 86.6 73.8 70.5 73.7 70.3C 73.3 70 51.8 73.8 51.5 74.2C 51.3 74.5 45 115 35.5 178C 33 194.2 30.8 208.5 30.5 209.7C 30 212 30.1 212 41 212C 51.5 212 52 211.9 52.5 209.7C 52.8 208.5 54.8 195.6 57 181C 62 147.6 61.4 150 64.8 150C 69.1 150 77.8 147.1 82.3 144.3C 103.1 131.2 113.3 96.6 103.9 71.4C 100.9 63.4 91.6 54 84.5 51.7C 77.7 49.6 70.6 49 64 50.1z"/>
<path style="stroke:none; fill:#000000" d="M 628.3 57.8C 625.2 58.3 620.3 64.2 618.9 69.2C 616.5 77.9 620.8 88.8 627.4 91C 631.6 92.4 634.8 91.2 638.3 87C 647.6 76 640.8 55.8 628.3 57.8z"/>
<path style="stroke:none; fill:#000000" d="M 132.6 62.4C 126.6 63.6 121.5 64.9 121.4 65.5C 121.2 66 117.2 91.7 112.4 122.5C 104.7 172.5 103.9 179.7 104.2 189.5C 104.5 199.3 104.8 201 107.2 205.1C 114.7 217.9 131.7 214.8 142.1 198.7C 144.2 195.4 146 193.4 146 194.2C 146 195 147.4 198.5 149.1 201.8C 157.3 218.3 174 216.5 185.6 198L 188.4 193.5L 189.2 197.8C 190.2 203.5 193.9 209.9 197.2 211.6C 203.9 215.1 214.2 212 220.6 204.7L 224.2 200.5L 223.5 206.3L 222.8 212L 233.9 212C 241.3 212 245 211.6 245 210.9C 245 206.2 256.3 137.4 257.7 133.6C 259.7 128.1 264.8 122 267.4 122C 268.3 122 269.9 122.9 271 124C 273.9 126.9 273.6 138.3 270 160.7C 266.9 179.7 266.2 193.6 268 200.2C 269.3 204.6 273.2 209.5 277.1 211.5C 283.6 214.9 294.3 212.2 299.4 205.9L 302.2 202.5L 301.6 207.2L 301 212L 312 212C 322.6 212 323 211.9 323.5 209.7C 323.7 208.5 326.2 192.4 329 174C 334.3 138.9 336.5 129.8 341.1 124.9C 344.3 121.5 347 121.2 349.6 124.1C 352.4 127.2 352 140.7 348.5 160.5C 344.7 181.8 344.5 196.4 347.8 203.2C 349.1 205.9 351.5 209 353.2 210.2C 356.9 212.8 364.5 213.7 369.3 212.1C 373.3 210.7 380.2 203.8 382.7 198.5C 383.6 196.6 384.7 195 385 195C 385.4 195 386.2 196.7 386.8 198.9C 388.5 204.4 394.6 210.4 400.3 212C 413.5 215.7 427.6 209.3 438 195.1C 440.5 191.7 442.6 189.4 442.8 189.9C 443 190.4 442.4 195.1 441.5 200.4C 440.7 205.7 440 210.4 440 211C 440 211.6 444.2 212 450.9 212L 461.8 212L 462.3 208.7C 462.6 207 465.4 188.4 468.5 167.5L 474.2 129.5L 478.6 125.2C 484.3 119.6 487.1 119.7 488.3 125.5C 489.7 132.3 491.2 134.5 494.7 134.8C 499.2 135.2 501.9 133.5 504.1 128.7C 507.6 120.9 505.4 107.9 500.2 105.1C 494.7 102.2 487.5 104.9 480.7 112.3L 476.9 116.5L 477.5 110.2L 478.1 104L 467 104C 461 104 456 104.3 456 104.7C 456 105.1 453.7 120.5 450.9 139L 445.9 172.5L 441.3 179.3C 434.2 189.9 426.8 194.9 418.2 195C 412.9 195 410.5 193.8 408.6 190.2C 406.8 186.7 405.5 176.2 406.4 171.7C 407 168.6 407.5 168.1 411.8 167C 418.4 165.4 423.7 162.1 429.7 155.8C 438.3 146.6 442.3 136.1 442.3 122.4C 442.3 112.8 440.3 107.7 435 104.2C 432 102.1 430.6 101.9 424.5 102.2C 415.9 102.7 411.3 104.8 405 111.2C 393.8 122.5 386.2 144.2 384.1 170.6C 382.8 186.6 379.4 192.6 371.7 191.8C 365.2 191.2 364.7 185.1 369.4 159.5C 375.6 125.7 374.5 111.7 365 105.2C 358.1 100.6 346.8 103.3 341.2 111C 339.9 112.7 338.7 114 338.5 113.8C 338.4 113.6 338.5 111.4 338.9 108.7L 339.7 104L 328.6 104L 317.5 104L 313.6 129.7C 306.2 179.2 305.1 184.1 299.8 189.7C 297 192.7 290.6 192.9 289 190.1C 287.4 187 287.8 177.3 290.1 164.4C 293.9 142.9 295 134.6 295 127.4C 295 112.5 289.7 104.1 279.7 103.2C 273 102.7 268.5 104.6 263.4 110.3L 259.7 114.3L 260.4 109.2L 261.1 104L 250 104C 244 104 239 104.1 239 104.3C 239 106.4 227.7 176.6 226.9 179.5C 224 190 217.6 195.9 212.6 192.6C 211.1 191.6 209.8 189.6 209.4 187.5C 208.9 184.6 217.6 121.5 220.6 106.7L 221.2 104L 210.2 104C 198.2 104 198 104.1 198 110.3L 198 113.5L 196 109.2C 193.8 104.3 191.2 103 183.7 103C 176.7 103.1 171.5 105.6 165.3 112.2C 154.5 123.7 147.1 144.7 145.1 169.4C 144.1 181.4 143 184.8 138.5 189.3C 135.5 192.2 129.5 193.1 127.2 190.8C 124.9 188.5 126.1 177.9 135 119.5C 139.9 87.1 143.9 60.6 143.7 60.5C 143.6 60.4 138.6 61.2 132.6 62.4zM 430 115.6C 433.2 123.8 428.4 141.9 420.9 150.5C 417.7 154.1 409.5 158.8 408.3 157.7C 407.7 157 410.7 142 413.2 134C 414.3 130.4 416.5 124.9 418.1 121.8C 422.4 113.3 428 110.3 430 115.6zM 193.2 117.7C 194 118.7 195 120.3 195.3 121.3C 196.3 123.9 188.1 175.5 185.8 181.7C 183.4 188.1 179.1 192 174.4 192C 171.7 192 170.8 191.4 169.4 188.9C 162.7 175.8 172.6 126.7 183.8 117.9C 186.9 115.5 191.2 115.4 193.2 117.7z"/>
<path style="stroke:none; fill:#000000" d="M 530.5 71.5L 519.5 73.5L 517.3 87.4C 514.7 103.8 514.7 103.8 511.8 104.2C 510 104.4 509.4 105.3 508.9 108.2C 508.4 111.7 508.5 112 510.7 112C 512.4 112 513 112.6 513 114.1C 513 115.2 510.9 129.5 508.3 145.8C 502.5 182.4 502 195.5 506 203.5C 512.3 216.1 525.9 216.4 537.4 204.1L 542.3 198.8L 541.6 202.7C 541.2 204.8 540.7 207.7 540.4 209.2L 539.8 212L 550.9 212C 561.6 212 562 211.9 562.5 209.7C 562.7 208.5 565.6 189.8 568.9 168.1L 574.8 128.7L 578.2 125.4C 580 123.6 582.7 121.8 584.2 121.5C 587.2 120.7 587.3 120.9 590.1 130C 591.4 134 591.8 134.5 594.8 134.8C 601.7 135.5 606 129.6 606 119.6C 606 109.6 602.3 104 595.8 104C 590.7 104 588.6 105.1 582.3 111.3C 576.8 116.6 576.6 116.5 577.9 108.7L 578.7 104L 567.6 104L 556.5 104L 551.7 136.2C 545.3 178.9 543.6 185 537.4 189.9C 534.7 192.1 529.6 192.6 527.1 191.1C 524.4 189.3 525 180.4 530.3 146.5L 535.6 112.5L 540.2 112.2C 544 112 544.9 111.5 545.4 109.7C 546.7 104.8 546.2 104 542.1 104C 539.9 104 537.9 103.6 537.6 103.1C 537.2 102.6 538.1 95.1 539.5 86.4C 540.9 77.8 541.9 70.4 541.8 70.1C 541.6 69.7 536.6 70.4 530.5 71.5z"/>
<path style="stroke:none; fill:#000000" d="M 911.3 86.2C 910.9 86.9 910.5 91.8 910.3 97C 910 110.3 905.7 138.6 903.6 140.9C 902.7 141.8 902 144.2 902 146.1C 902 148 900.6 153 898.8 157.2C 896.2 163.2 894.9 165.1 892.5 166.2C 890 167.3 889.4 168.2 888.9 172C 888.5 175.1 885.8 180.8 880.2 190.5C 875.7 198.2 872 204.8 872 205.2C 872 205.7 876.5 206 882 206L 891.9 206L 893.2 201.8C 895.5 193.9 903.7 188 912 188C 919.2 188.1 926.2 194.3 929 203.2L 930.2 207L 939.5 207C 944.8 207 949.2 206.6 949.5 206C 949.9 205.4 946.2 197.9 941.4 189.2C 935.7 179 932.7 172.6 932.8 170.9C 933 168.7 932.4 168 930.1 167.2C 927.7 166.4 926.7 164.9 924 157.8C 921.9 152.2 921 148.5 921.3 146.3C 921.7 144.1 921.3 142.7 920 141.5C 919 140.6 917.9 138.2 917.5 136.2C 916.2 129 914.3 92.5 915.2 90.7C 915.7 89.7 915.7 88.2 915 87C 913.8 84.7 912.5 84.4 911.3 86.2z"/>
<path style="stroke:none; fill:#000000" d="M 657.5 99.2C 657.2 101 654.5 118.5 651.5 138C 648.5 157.5 645.4 175.8 644.6 178.5C 643.7 181.3 641.4 185.5 639.4 187.8C 636.4 191.4 635.3 192 632 192C 623.9 192 623.9 190.2 631.4 141.3C 634.5 121.4 637 104.9 637 104.6C 637 104.3 632.1 104 626.1 104L 615.2 104L 614.1 110.2C 608.8 141.7 603.7 178.9 603.7 187.5C 603.6 196.3 603.9 198.2 606.2 203.2C 609.4 210.1 613.4 213 620 213C 626.2 212.9 632.6 209.8 637.8 204.2L 642.2 199.5L 641.5 204.5C 641 207.3 639.7 215.8 638.6 223.5L 636.4 237.5L 318.2 237.8L -0.000183105 238L -0.000183105 241L -0.000183105 244L 317.5 244C 619.2 244 635 244.1 635 245.7C 635 246.7 634.3 251.5 633.5 256.5C 632.7 261.4 632.2 265.5 632.4 265.7C 632.6 265.9 654.1 259.1 654.8 258.5C 654.9 258.4 655.6 255.2 656.3 251.4L 657.5 244.5L 814.8 244.2L 972 244L 972 241L 972 238L 815.2 238L 658.3 238L 660.6 222.7C 661.9 214.4 663 207 663 206.5C 663 205.9 664 206.7 665.3 208.2C 671.9 216.3 687.2 214 696.9 203.5C 706.9 192.6 713.2 171.9 714.6 144.5C 715.4 130.2 714 119.7 710.4 112.3C 707.2 105.7 703.1 103 696.1 103C 690.1 103 685.8 104.6 681.1 108.6L 677.7 111.5L 678.4 107C 678.7 104.5 679.3 101 679.6 99.2L 680.2 96L 669.2 96L 658.1 96L 657.5 99.2zM 690.3 119.7C 694.7 124.7 695.1 144.1 691 163.9C 688.2 177.6 685.5 184.5 680.8 189.6C 675.3 195.6 667.9 196.2 666.5 190.8C 665.6 187.4 674.6 129.6 676.6 125.9C 680.2 118.8 686.8 115.9 690.3 119.7z"/>
<path style="stroke:none; fill:#000000" d="M 816 143.5C 816 144.3 816.7 145 817.5 145C 818.3 145 819 144.3 819 143.5C 819 142.7 818.3 142 817.5 142C 816.7 142 816 142.7 816 143.5z"/>
<path style="stroke:none; fill:#000000" d="M 794 144.5C 794 145.3 794.7 146 795.5 146C 796.3 146 797 145.3 797 144.5C 797 143.7 796.3 143 795.5 143C 794.7 143 794 143.7 794 144.5z"/>
<path style="stroke:none; fill:#000000" d="M 775 147.5C 775 148.3 775.5 149 776 149C 776.6 149 777 148.3 777 147.5C 777 146.7 776.6 146 776 146C 775.5 146 775 146.7 775 147.5z"/>
<path style="stroke:none; fill:#000000" d="M 759.5 151.3C 759.1 152.3 759 153.4 759.4 153.7C 760.4 154.7 761.2 153.3 760.7 151.3C 760.3 149.6 760.3 149.6 759.5 151.3z"/>
<path style="stroke:none; fill:#000000" d="M 747.1 156.6C 747.1 157.7 747.4 158 747.7 157.2C 748 156.5 747.9 155.6 747.6 155.3C 747.3 154.9 747 155.5 747.1 156.6z"/>
<path style="stroke:none; fill:#000000" d="M 805.2 159.2C 804.5 159.9 804 162.1 804 164.2C 804 167.9 804.1 168 807.5 168C 811 168 811 168 811 163.6C 811 160.5 810.5 159 809.4 158.6C 807.2 157.8 806.6 157.8 805.2 159.2z"/>
<path style="stroke:none; fill:#000000" d="M 816.7 158.7C 816.3 159 816 161.3 816 163.7C 816 168 816 168 819.6 168L 823.3 168L 822.6 163.8C 822.2 161.6 821.7 159.3 821.4 158.8C 820.8 157.8 817.6 157.7 816.7 158.7z"/>
<path style="stroke:none; fill:#000000" d="M 827.8 159.4C 826.9 160.2 826.5 162.1 826.8 164.4C 827.2 167.6 827.5 168 830.1 168C 832.9 168 833 167.8 833 163.6C 833 160.5 832.5 159 831.4 158.6C 829.3 157.8 829.3 157.8 827.8 159.4z"/>
<path style="stroke:none; fill:#000000" d="M 794.2 160.2C 793.5 160.9 793 163.1 793 165.2C 793 168.9 793.1 169 796.5 169C 799.9 169 800 168.9 800 165.2C 800 161.4 798.6 159 796.5 159C 795.9 159 794.9 159.5 794.2 160.2z"/>
<path style="stroke:none; fill:#000000" d="M 838 163.9C 838 168.9 838.1 169 841.1 169C 844.1 169 844.1 168.9 843.8 164.2C 843.5 159.9 843.3 159.5 840.8 159.2C 838.1 158.9 838 159 838 163.9z"/>
<path style="stroke:none; fill:#000000" d="M 783 165.5C 783 169.6 783.2 170 785.5 170C 787.8 170 788 169.6 788 165.5C 788 161.4 787.8 161 785.5 161C 783.2 161 783 161.4 783 165.5z"/>
<path style="stroke:none; fill:#000000" d="M 773.7 162.7C 773.3 163 773 165.1 773 167.2C 773 170.6 773.3 171 775.5 171C 777.8 171 778 170.6 778 166.5C 778 162.8 777.7 162 776.2 162C 775.2 162 774 162.3 773.7 162.7z"/>
<path style="stroke:none; fill:#000000" d="M 764.7 164.6C 764.3 165 764 167.1 764 169.2C 764 172.6 764.3 173 766.6 173C 768.9 173 769.1 172.7 768.8 168.8C 768.5 164.7 766.6 162.8 764.7 164.6z"/>
<path style="stroke:none; fill:#000000" d="M 757 170C 757 172.9 757.4 174 758.5 174C 759.6 174 760 172.9 760 170C 760 167.1 759.6 166 758.5 166C 757.4 166 757 167.1 757 170z"/>
<path style="stroke:none; fill:#000000" d="M 750.9 168.5C 750.1 169.3 751.2 176 752.1 176C 752.6 176 753 174.2 753 172C 753 168.4 752.2 167.1 750.9 168.5z"/>
<path style="stroke:none; fill:#000000" d="M 745 174.1C 745 176.5 745.4 177.9 746 177.5C 746.6 177.2 747 175.3 747 173.4C 747 171.5 746.6 170 746 170C 745.5 170 745 171.8 745 174.1z"/>
<path style="stroke:none; fill:#000000" d="M 740.7 171.7C 739.6 172.7 739.9 179 741 179C 741.6 179 742 177.2 742 175C 742 170.9 741.8 170.5 740.7 171.7z"/>
<path style="stroke:none; fill:#000000" d="M 736.2 177C 736.2 178.9 736.4 179.7 736.7 178.7C 736.9 177.8 736.9 176.2 736.7 175.2C 736.4 174.3 736.2 175.1 736.2 177z"/>
<path style="stroke:none; fill:#000000" d="M 818.3 177.7C 817.5 178 817 180.2 817 183.6L 817 189L 821.1 189C 824.4 189 825.1 188.7 824.6 187.4C 824.3 186.5 824 184.6 824 183C 824 181.4 823.3 179.4 822.4 178.6C 820.8 176.9 820.3 176.8 818.3 177.7z"/>
<path style="stroke:none; fill:#000000" d="M 829.7 177.7C 829.3 178 829 180.5 829 183.2L 829 188L 832.5 188C 835.8 188 836 187.8 836 184.4C 836 182.5 835.5 180 835 178.9C 834 177 831 176.3 829.7 177.7z"/>
<path style="stroke:none; fill:#000000" d="M 841.2 178.2C 840.5 178.9 840 181.6 840 184.2L 840 189L 843.5 189C 846.8 189 847 188.8 847 185.7C 847 182.2 845.1 177.9 843.5 177.3C 842.9 177.1 841.9 177.5 841.2 178.2z"/>
<path style="stroke:none; fill:#000000" d="M 794.7 178.7C 794.3 179 794 181.5 794 184.2C 794 188.9 794.1 189 797 189C 799.9 189 800 188.8 800 184.7C 800 179.4 797.2 176.2 794.7 178.7z"/>
<path style="stroke:none; fill:#000000" d="M 805.7 178.7C 805.3 179 805 181.5 805 184.2L 805 189L 808.9 189L 812.8 189L 812.3 184.7C 812 182.4 811.3 179.9 810.7 179.2C 809.7 177.9 806.8 177.6 805.7 178.7z"/>
<path style="stroke:none; fill:#000000" d="M 850.5 180.1C 850.1 181.2 850.1 183.7 850.5 185.6C 851 188.4 851.5 189 853.5 189C 855.7 189 856 188.6 856 185.1C 856 182.9 855.7 180.5 855.4 179.6C 854.5 177.3 851.3 177.6 850.5 180.1z"/>
<path style="stroke:none; fill:#000000" d="M 782.7 179.7C 782.3 180 782 182.5 782 185.2L 782 190L 785.5 190C 788.9 190 789 189.9 789 186.1C 789 183.9 788.7 181.5 788.4 180.6C 787.8 179 783.9 178.4 782.7 179.7z"/>
<path style="stroke:none; fill:#000000" d="M 772.7 180.7C 772.3 181 772 183.3 772 185.7C 772 190 772 190 775.5 190C 778.9 190 779 189.9 779 186.2C 779 184.1 778.5 181.9 777.8 181.2C 776.5 179.9 773.7 179.6 772.7 180.7z"/>
<path style="stroke:none; fill:#000000" d="M 764.3 181.7C 763.5 182 763 184 763 186.7C 763 190.7 763.2 191.1 765.3 190.8C 767 190.6 767.6 189.8 767.8 186.9C 768.1 183.2 766.5 180.9 764.3 181.7z"/>
<path style="stroke:none; fill:#000000" d="M 756 187C 756 189.9 756.4 191 757.5 191C 758.6 191 759 189.9 759 187C 759 184.1 758.6 183 757.5 183C 756.4 183 756 184.1 756 187z"/>
<path style="stroke:none; fill:#000000" d="M 749.7 184.7C 749.3 185 749 186.8 749 188.7C 749 191 749.5 192 750.5 192C 751.6 192 752 190.9 752 188C 752 184.2 751.2 183.1 749.7 184.7z"/>
<path style="stroke:none; fill:#000000" d="M 743.7 185.7C 742.6 186.7 742.9 193 744 193C 744.6 193 745 191.2 745 189C 745 184.9 744.8 184.5 743.7 185.7z"/>
<path style="stroke:none; fill:#000000" d="M 739.3 189.5C 739.3 191.7 739.5 192.5 739.7 191.2C 739.9 190 739.9 188.2 739.7 187.2C 739.4 186.3 739.2 187.3 739.3 189.5z"/>
<path style="stroke:none; fill:#000000" d="M 735.3 190.5C 735.3 192.7 735.5 193.5 735.7 192.2C 735.9 191 735.9 189.2 735.7 188.2C 735.4 187.3 735.2 188.3 735.3 190.5z"/>
<path style="stroke:none; fill:#000000" d="M 732.2 192C 732.2 193.9 732.4 194.7 732.7 193.7C 732.9 192.8 732.9 191.2 732.7 190.2C 732.4 189.3 732.2 190.1 732.2 192z"/>
</g>
</g>
</svg>